# xmcd CD database file generated by OrangeCD 5.2
#
# Track frame offsets:
#	150
#	15900
#	31296
#	40617
#	54149
#	67093
#	80442
#	90415
#	100486
#	116617
#
# Disc length: 1671 seconds
#
# Revision: 0
# Processed by: cddbd v1.5.1PL0 Copyright (c) Steve Scherf et al.
# Submitted via: OrangeCD 5.2
#
DISCID=6d06850a
DTITLE=Johnny Cash - Man In Black
DYEAR=1971
DGENRE=Country
TTITLE0=Johnny Cash and Billy Graham - The Preacher Said, "Jesus Said"
TTITLE1=Orphan Of The Road
TTITLE2=You've Got A New Light Shining In Your Eyes
TTITLE3=If Not For Love
TTITLE4=Man In Black
TTITLE5=Singin' In Viet Nam Talking Blues
TTITLE6=Ned Kelly
TTITLE7=Johnny Cash and June Carter Cash - Look For Me
TTITLE8=Dear Mrs.
TTITLE9=Johnny Cash and June Carter Cash - I Talk To Jesus Everyday
EXTD=
EXTT0=
EXTT1=
EXTT2=
EXTT3=
EXTT4=
EXTT5=
EXTT6=
EXTT7=
EXTT8=
EXTT9=
PLAYORDER=
